<svg id="Layer_1" data-name="Layer 1" xmlns="http://www.w3.org/2000/svg" xmlns:xlink="http://www.w3.org/1999/xlink" viewBox="0 0 4411.81 808.11"><defs><style>.cls-1{fill:#fff;}.cls-2{fill:url(#linear-gradient);}.cls-3{fill:url(#linear-gradient-2);}</style><linearGradient id="linear-gradient" x1="2493.71" y1="371.88" x2="2546.92" y2="293.15" gradientUnits="userSpaceOnUse"><stop offset="0" stop-color="#fff"/><stop offset="0.68" stop-color="#aaabad"/></linearGradient><linearGradient id="linear-gradient-2" x1="2493.71" y1="479.2" x2="2546.92" y2="400.46" gradientTransform="matrix(1, 0, 0, -1, 0, 1342.58)" xlink:href="#linear-gradient"/></defs><path class="cls-1" d="M2560.31,864.91,2430.42,683.08l-46.74-65.45,46.74-65.42,129.89-181.84,80.76-113.1c-51.35-19.28-101.19-29.44-139.49-34.8L2302.06,502.68l-6.13-8.57-199.65-278.8H1931.92L2219.3,617.63,1931.92,1020h164.36l199.65-278.82,6.13-8.58,200.24,281.29c38.35-5.44,88.11-15.68,139.36-35.06Z" transform="translate(-159.36 -214.16)"/><path class="cls-2" d="M2560.68,370.47l-43.93,60.9-71.34-85.7S2538.93,350,2560.68,370.47Z" transform="translate(-159.36 -214.16)"/><path class="cls-3" d="M2560.68,864.8l-43.93-60.9-71.34,85.69S2538.93,885.24,2560.68,864.8Z" transform="translate(-159.36 -214.16)"/><path class="cls-1" d="M1031.84,1020H897.35V525.68L666.3,1020H539.85l-246-504.63V1020H159.36V214.16H296.15L601.93,840.65,895.05,214.16h136.79Z" transform="translate(-159.36 -214.16)"/><path class="cls-1" d="M1663.05,951.15H1365L1337.6,1020H1192.76l320.72-804.66L1835.34,1020H1690.5ZM1611,819.86l-97.47-242.45L1417,819.86Z" transform="translate(-159.36 -214.16)"/><path class="cls-1" d="M3286.42,684.31h-109.2V1020H3042.73V215.31h267.83s269,0,269,234.5c0,129.9-82.76,187.37-155.18,213.81L3588.75,1020H3440.46ZM3177.22,551h133.34s134.5,0,134.5-101.16c0-100-134.5-100-134.5-100H3177.22Z" transform="translate(-159.36 -214.16)"/><path class="cls-1" d="M3734.37,215.31h134.5V1020h-134.5Z" transform="translate(-159.36 -214.16)"/><path class="cls-1" d="M4571.18,451c0,235.65-269,235.65-269,235.65H4167.7v335.66H4033.2v-807h269S4571.18,215.31,4571.18,451Zm-134.5,0c0-101.15-134.49-101.15-134.49-101.15H4167.7V552.12h134.49S4436.68,552.12,4436.68,451Z" transform="translate(-159.36 -214.16)"/><path class="cls-1" d="M2641.07,257.27c-51.35-19.28-101.19-29.44-139.49-34.8-42.78-6-71.16-6-71.16-6H2295.93V1020h134.49s28.69,0,71.88-6.11c38.35-5.44,88.11-15.68,139.36-35.06,124-46.83,256.6-147,256.6-361.18C2898.26,403.74,2765.27,303.88,2641.07,257.27Zm-80.76,607.64c-69.48,20.56-129.89,20.56-129.89,20.56V349.82s60.41,0,129.89,20.55c94,27.83,204.62,93.27,204.62,247.26S2654.32,837.09,2560.31,864.91Z" transform="translate(-159.36 -214.16)"/></svg>